<svg width="233" height="164" viewBox="0 0 233 164" fill="none" xmlns="http://www.w3.org/2000/svg">
    <g opacity=".3" clip-path="url(#vn9kghl5ga)">
        <path
            d="m97.14 38.21-.699 11.17 6.502-1.687.963-9.15c.029-.21.376-.605-.171-.852a1.105 1.105 0 0 0-.498-.087l-5.68.202a.43.43 0 0 0-.417.405z"
            fill="#838893" />
        <path
            d="m97.382 38.452-.698 11.169 6.501-1.686.901-9.654a.39.39 0 0 0-.4-.443l-5.888.21a.43.43 0 0 0-.416.404z"
            fill="#253662" />
        <path
            d="M207.181 152.528a1.806 1.806 0 0 0 1.127-2.292l-16.334-47.933a1.808 1.808 0 0 0-3.42 1.166l16.334 47.932a1.807 1.807 0 0 0 2.293 1.127zM152.84 152.528a1.806 1.806 0 0 1-1.127-2.292l16.333-47.933a1.808 1.808 0 0 1 3.42 1.166l-16.334 47.932a1.806 1.806 0 0 1-2.292 1.127z"
            fill="#6F9BF7" />
        <path
            d="M190.959 99.826h-22.154v6.984h22.154v-6.984zM141.111 57.926l10.355 43.104h12.522l-9.151-43.104h-13.726zM24.32 58.889l7.706 42.14h13.726l-6.983-42.14H24.32z"
            fill="#6F9BF7" />
        <path
            d="M173.379 60.575H2.167L0 48.775h170.971l2.408 11.8zM3.611 65.872h171.306l2.916 12.281H6.041l-2.43-12.28zM6.742 82.246h171.306l2.916 12.281H9.172l-2.43-12.28zM232.136 98.862H9.873v4.335h222.263v-4.335z"
            fill="#BFCBFF" />
        <path
            d="M70.797 17.23s3.853.24 5.057 4.093c1.204 3.853 2.409 2.408 2.89 4.816.482 2.408-.481 3.372-.481 3.372L68.87 20.6l1.927-3.371z"
            fill="#253662" />
        <path
            d="m60.892 3.68 2.302 3.79 1.823-.114-1.248-6.86A.605.605 0 0 0 62.763.16l-1.587 1.474a1.633 1.633 0 0 0-.284 2.044z"
            fill="#FFAEB6" />
        <path
            d="M64.054 6.634 59.8 4.202a.913.913 0 0 0-1.252.35l-.178.317a1.204 1.204 0 0 0 .455 1.63l4.026 2.302 1.204-2.167zM151.569 108.133c-12.281 20.709-15.773 23.238-29.499 30.221-12.331 6.273-21.672.963-21.672.963.01-.043.019-.089.026-.134.472-2.295.925-6.415 1.33-11.15.472-5.504.883-11.84 1.189-17.111v-.01c.366-6.307.585-11.087.585-11.087s-23.358 3.613-34.194-3.612c-6.779-4.517-6.771-12.521-5.818-17.884.571-3.21 1.484-5.474 1.484-5.474l-.063-.216-2.324-7.894-2.43-8.264 3.326-9.994 9.745-21.008c2.613 1.549 6.943 4.229 10.37 6.919 2.408 1.892 4.37 3.79 4.975 5.3 1.926 4.816 5.779 22.756 5.779 22.756l-2.167 2.288c36.12-2.168 39.01 4.093 43.826 11.558.698 1.081 3.08 6.196 5.842 12.296a845.488 845.488 0 0 1 1.784 3.956c1.327 2.957 2.678 5.986 3.921 8.787 2.957 6.67 3.985 8.794 3.985 8.794z"
            fill="#FF6675" />
        <path
            d="m82.506 66.54 4.304 6.917c-11.046 3.974-19.773 4.229-22.629 3.42-.147-3.258.248-5.666.248-5.666l-.108-.198 18.185-4.474z"
            fill="#D80E56" />
        <path
            d="M152.55 109.82c-12.281 20.709-16.736 21.552-30.462 28.535-12.331 6.273-21.672.963-21.672.963.01-.043.019-.089.027-.135.471-2.295.924-6.415 1.329-11.149 1.582-1.103 3.33-2.146 5.146-2.923 6.742-2.89 14.207.481 21.672-16.134 4.775-10.632 10.815-15.881 15.091-18.424 1.327 2.957 2.678 5.986 3.921 8.787 2.957 6.67 4.948 10.48 4.948 10.48z"
            fill="#D84A5E" />
        <path d="m84.055 66.861 9.836-7.127-.474-4.323-10.323 7.26.96 4.19z" fill="#D80E56" />
        <path
            d="M152.296 164h-7.879c-1.291 0-2.471-.768-3.056-1.987l-12.524-23.216-7.232-13.405s10.596-21.222 12.282-16.621c.662 1.814 3.236 9.943 6.109 19.127a9571.61 9571.61 0 0 1 9.047 29.123 5.523 5.523 0 0 0 1.755 2.649l2.288 1.888c.965.797.433 2.442-.79 2.442zM162.606 128.949l-6.396.614a3.074 3.074 0 0 1-2.675-1.112 4797.942 4797.942 0 0 0-11.301-13.726c-.749-.91-1.481-1.792-2.172-2.625a612.12 612.12 0 0 0-3.1-3.713 3.345 3.345 0 0 1 .258-4.583l5.406-5.131.227-.215 3.007-2.855.381.797.517 1.08 1.549 3.24 1.312 2.742 9.459 19.773a5.079 5.079 0 0 0 1.902 2.124l2.153 1.336c.992.617.636 2.141-.527 2.254z"
            fill="#BA837D" />
        <path
            d="M138.823 124.508c-2.649 5.057-8.305 8.987-11.559 11.318l-5.659-10.434s10.596-21.222 12.282-16.621c.662 1.816 2.063 6.553 4.936 15.737zM146.241 96.398l-3.615 2.274-5.406 5.131a3.345 3.345 0 0 0-.258 4.583 612.12 612.12 0 0 1 3.1 3.713c.691.833 1.423 1.714 2.172 2.625.628-6.464 3.711-13.519 5.259-15.5l-1.252-2.826z"
            fill="#8E4D4D" />
        <path
            d="M147.601 99.34c-2.396.375-4.963 1.153-7.213 2.653-6.501 4.335-7.224 25.526-21.913 27.934-9.976 1.635-15.508 6.381-18.034 9.256.472-2.295.925-6.415 1.33-11.149 1.582-1.103 3.33-2.146 5.146-2.923 6.742-2.89 14.207.481 21.672-16.134 4.775-10.632 10.815-15.881 15.091-18.424 1.327 2.957 2.678 5.986 3.921 8.787zM63.527 46.487l9.745-21.008c2.613 1.549 6.942 4.229 10.37 6.919-4.347 15.163-13.534 25.8-21.011 32.347l.896-18.258z"
            fill="#FFAEB6" />
        <path d="m65.138 49.617 7.344 15.291h-7.464l.12-15.29z" fill="#181D28" />
        <path d="m87.23 64.561-.42 8.896-4.816-3.612 1.647-3.974 3.588-1.31z" fill="#D80E56" />
        <path
            d="M61.658 103.197H9.873v-4.335h51.703c.703 0 1.274.571 1.274 1.274v1.869c0 .657-.535 1.192-1.192 1.192z"
            fill="#6F9BF7" />
        <path
            d="M17.748 152.528a1.806 1.806 0 0 1-1.127-2.292l16.334-47.933a1.807 1.807 0 0 1 3.419 1.166L20.04 151.401a1.806 1.806 0 0 1-2.292 1.127zM72.571 152.528a1.806 1.806 0 0 0 1.127-2.292l-16.333-47.933a1.807 1.807 0 0 0-3.42 1.166l16.334 47.932a1.806 1.806 0 0 0 2.292 1.127z"
            fill="#6F9BF7" />
        <path d="M56.108 100.066H33.713v6.021h22.395v-6.021z" fill="#6F9BF7" />
        <path
            d="M103.347 48.288a15.37 15.37 0 0 1-2.577 3.15c-2.463 2.321-8.551 7.917-13.894 11.672-.526.368-1.046.722-1.554 1.052a29.079 29.079 0 0 1-2.74 1.594l-1.064-10.29s.5-.31 1.324-.811c.046-.029.094-.056.142-.087 3.61-2.2 12.703-7.706 13.68-7.819 1.219-.142 2.502 1.467 6.018-.183 1.977-.927 1.478.393.665 1.722z"
            fill="#BA837D" />
        <path
            d="M64.054 25.657s-9.15 4.335-11.318 13.244c-2.167 8.91-2.648 25.526 4.335 33.472 6.983 7.947 26.609-2.528 26.609-2.528l1.204-18.06-16.662 11.592a1.123 1.123 0 0 1-1.203-.947c-.4-2.576-1.327-9.174-.557-10.525 0 0 9.023-8.32 11.347-23.108a.972.972 0 0 0-.42-.956l-6.231-4.23-7.104 2.046z"
            fill="#FEE69C" />
        <path
            d="M73.204 5.19s.963 4.575.722 6.983a231.34 231.34 0 0 1-.662 5.567.648.648 0 0 1-.508.55l-2.28.488a.597.597 0 0 0-.441.78c.549 1.585 3.78 5.914 5.844 7.183.104.063.111.21.015.287-1.243.99-8.077 5.943-13.529-.164l.963-18.06 9.876-3.615z"
            fill="#BA837D" />
        <path
            d="M64.776 10.728s7.465 1.445 8.91-3.612c1.445-5.057-3.853-6.02-6.26-4.816-2.409 1.204-3.131 5.297-5.058 5.538-1.926.24-6.26 1.204-6.26 8.428 0 7.224 3.37 11.077 1.444 15.17 0 0 7.224-4.334 8.428-7.705 1.204-3.371 1.445-7.946-1.204-13.003z"
            fill="#253662" />
        <path d="m84.99 53.43 1.099 10.154c-.723.482-1.204.723-1.927 1.204l.667-11.32.162-.038z"
            fill="#9B6A67" />
        <path
            d="M6.311 60.575H2.167L0 48.775h4.151l2.16 11.8zM10.165 77.792H6.021l-2.167-11.8h4.151l2.16 11.8zM13.294 94.407H9.15l-2.168-11.8h4.152l2.16 11.8z"
            fill="#6F9BF7" />
        <path opacity=".35"
            d="M101.26 40.39c.029-.33-.162-.618-.427-.641-.265-.023-.503.226-.532.557-.029.332.162.62.427.642.265.023.503-.226.532-.557z"
            fill="#838893" />
    </g>
    <defs>
        <clipPath id="vn9kghl5ga">
            <path fill="#fff" d="M0 0h232.136v164H0z" />
        </clipPath>
    </defs>
</svg>
